# xmcd CD database file
#
# Track frame offsets:
#	150
#	39363
#	69862
#	97561
#	124682
#	154468
#	185165
#	214110
#	250315
#
# Disc length: 3654 seconds
#
# Revision: 0
# Processed by: cddbd v1.4PL0 Copyright (c) Steve Scherf et al.
# Submitted via: CDex 1.40Release
#
DISCID=740e4409
DTITLE=A Blues of Many Colors - Spike Wilner Ensemble
DYEAR=1900
DGENRE=Blues
TTITLE0=Upsaka
TTITLE1=Prelude
TTITLE2=A Blues of Many Colors
TTITLE3=The East Village Inamorata
TTITLE4=The Silver Cord
TTITLE5=Wyrich's Fable
TTITLE6=A Foolish Lament
TTITLE7=A Stitch in Time
TTITLE8=Spike Strikes!
EXTD=ID3G: 0
EXTT0=
EXTT1=
EXTT2=
EXTT3=
EXTT4=
EXTT5=
EXTT6=
EXTT7=
EXTT8=
PLAYORDER=
